<svg width="18" height="18" viewBox="0 0 18 18" fill="none" xmlns="http://www.w3.org/2000/svg">
<path d="M12.1714 7C11.731 7 11.3425 6.71197 11.2145 6.29064L9.95683 2.15007C9.66954 1.20425 8.33046 1.20425 8.04317 2.15007L6.78547 6.29064C6.65749 6.71197 6.26897 7 5.82864 7H2.12293C1.14986 7 0.749987 8.24878 1.54207 8.814L4.59193 10.9904C4.94296 11.2409 5.09387 11.6882 4.96633 12.1001L3.75239 16.0209C3.46471 16.95 4.53845 17.7014 5.3128 17.1127L8.39534 14.7696C8.75275 14.4979 9.2474 14.4978 9.60502 14.7691L12.6991 17.1172C13.4736 17.705 14.5464 16.9536 14.2588 16.0249L13.0435 12.0996C12.916 11.6879 13.0667 11.2408 13.4173 10.9902L16.4627 8.81355C17.254 8.24795 16.8539 7 15.8812 7H12.1714Z" fill="#8C9EFF" stroke="#8C9EFF"/>
</svg>
