<svg width="125" height="34" viewBox="0 0 125 34" fill="none" xmlns="http://www.w3.org/2000/svg">
<path d="M40.5946 22.7351C37.3885 25.8536 32.1678 25.8536 28.9616 22.7351C25.7554 19.6167 25.7554 14.5388 28.9616 11.4203C32.1678 8.30183 37.3885 8.30183 40.5946 11.4203C42.297 13.0761 45.0492 13.0761 46.7233 11.4203C48.4257 9.76448 48.4257 7.08755 46.7233 5.45932C40.1123 -0.970816 29.4156 -0.970816 22.8046 5.45932C16.7044 11.3927 16.2504 20.7206 21.4427 27.1783L17.3002 31.2075C16.4206 32.063 17.0448 33.5256 18.2933 33.5256H34.8065C39.1192 33.5256 43.432 31.925 46.7233 28.7237C48.4257 27.0679 48.4257 24.391 46.7233 22.7627C45.0209 21.0793 42.2687 21.0793 40.5946 22.7351Z" fill="#8C9EFF"/>
<path d="M17.9792 31.2314L22.1905 27.1958C16.912 20.7277 17.3735 11.385 23.575 5.44214C24.7865 4.2812 26.1134 3.3414 27.5556 2.62273C24.8731 1.21303 21.729 0.494356 18.4119 0.660203C9.67196 1.07482 2.57619 7.92985 2.20121 16.3328C2.02814 20.3684 3.32615 24.0723 5.66256 27.0299L1.30703 31.2038C0.412846 32.0606 1.04743 33.5256 2.31659 33.5256H18.9888C17.7196 33.5256 17.085 32.0606 17.9792 31.2314Z" fill="#A3D951"/>
<path d="M68.9836 17.2514C68.9271 16.5026 68.513 15.8523 67.8731 15.5174C67.1202 15.1232 66.1979 15.2415 65.5768 15.8523C65.031 16.3844 64.3534 16.6603 63.5817 16.6603C61.9818 16.6603 60.2502 15.5371 60.2502 13.0936C60.2502 10.7881 61.9254 9.56634 63.5817 9.56634C64.3534 9.56634 65.031 9.84222 65.5768 10.3743C66.1979 10.9654 67.1202 11.1034 67.8731 10.7093C68.513 10.3743 68.9271 9.72399 68.9836 8.97518C69.04 8.24609 68.7389 7.5367 68.1742 7.10318C66.9885 6.17703 65.4074 5.7041 63.6005 5.7041C58.9515 5.7041 55.7141 8.73872 55.7141 13.0936C55.7141 17.4879 58.9515 20.5422 63.6005 20.5422C65.3886 20.5422 66.9696 20.0496 68.1742 19.1431C68.7389 18.6899 69.04 17.9805 68.9836 17.2514Z" fill="#505050"/>
<path d="M96.3237 8.50226C96.3237 7.08347 95.2535 5.94057 93.9656 5.94057H92.8772C92.2786 5.94057 91.7888 6.47261 91.7888 7.12288V7.33964L91.6437 7.182C90.773 6.19673 89.5395 5.7041 87.9795 5.7041C84.1521 5.7041 81.4856 8.73872 81.4856 13.0936C81.4856 17.4879 84.1521 20.5422 87.9795 20.5422C89.7391 20.5422 91.0088 19.9905 91.8614 18.887L92.0065 18.7096V18.9461C92.0065 19.6949 92.5688 20.3057 93.2581 20.3057H93.766C95.1628 20.3057 96.3056 19.0643 96.3056 17.547V8.50226H96.3237ZM88.9772 16.6603C87.254 16.6603 86.0749 15.2218 86.0749 13.0936C86.0749 10.9851 87.2358 9.56634 88.9772 9.56634C90.7005 9.56634 91.8795 10.9851 91.8795 13.0936C91.8614 15.2415 90.7005 16.6603 88.9772 16.6603Z" fill="#505050"/>
<path d="M114.316 19.8928C115.69 20.3061 117.302 20.5422 118.835 20.5422C123.194 20.5422 126 18.712 126 15.8586C126 12.3163 122.596 11.8243 120.128 11.4701C118.576 11.2536 117.362 11.0765 117.362 10.25C117.362 9.91545 117.6 9.14796 119.81 9.14796C120.745 9.14796 121.661 9.28571 122.537 9.56122C123.413 9.83673 124.328 9.44315 124.686 8.6363L124.726 8.5379C124.925 8.08528 124.925 7.55394 124.706 7.10132C124.487 6.6487 124.089 6.31416 123.612 6.19608C122.437 5.88121 121.084 5.7041 119.79 5.7041C115.491 5.7041 112.724 7.55395 112.724 10.4468C112.724 14.0481 116.167 14.5007 118.675 14.8352C120.188 15.032 121.402 15.1895 121.402 15.9963C121.402 16.7441 120.666 17.0787 119.014 17.0787C117.859 17.0787 116.585 16.8622 115.471 16.4686C115.272 16.4096 115.073 16.3702 114.874 16.3702C114.177 16.3702 113.5 16.7835 113.202 17.4526C113.003 17.9249 113.003 18.4562 113.221 18.9285C113.401 19.3811 113.819 19.7354 114.316 19.8928Z" fill="#505050"/>
<path d="M99.4781 19.8928C100.851 20.3061 102.464 20.5422 103.996 20.5422C108.355 20.5422 111.162 18.712 111.162 15.8586C111.162 12.3163 107.758 11.8243 105.29 11.4701C103.738 11.2536 102.523 11.0765 102.523 10.25C102.523 9.91545 102.762 9.14796 104.972 9.14796C105.907 9.14796 106.823 9.28571 107.699 9.56122C108.554 9.83673 109.49 9.44315 109.848 8.6363L109.888 8.5379C110.087 8.08528 110.087 7.55394 109.868 7.10132C109.649 6.6487 109.251 6.31416 108.773 6.19608C107.599 5.88121 106.246 5.7041 104.952 5.7041C100.652 5.7041 97.8857 7.55395 97.8857 10.4468C97.8857 14.0481 101.329 14.5007 103.837 14.8352C105.35 15.032 106.564 15.1895 106.564 15.9963C106.564 16.7441 105.828 17.0787 104.176 17.0787C103.021 17.0787 101.747 16.8622 100.633 16.4686C100.434 16.4096 100.234 16.3702 100.035 16.3702C99.3388 16.3702 98.662 16.7835 98.3635 17.4526C98.1644 17.9249 98.1644 18.4562 98.3834 18.9285C98.5625 19.3811 98.9805 19.7354 99.4781 19.8928Z" fill="#505050"/>
<path d="M79.9225 18.3779L79.9027 18.0294C79.8629 17.4791 79.3662 17.0388 78.7702 17.0388C77.6973 17.0388 77.0814 16.4518 77.0814 15.4061V6.43565C77.0814 5.16987 75.9687 4.14258 74.5978 4.14258C73.2269 4.14258 72.1143 5.16987 72.1143 6.43565V15.6629C72.1143 18.7632 74.1607 20.5426 77.737 20.5426H77.7569C78.3529 20.5426 78.9093 20.3225 79.3265 19.9005C79.7239 19.497 79.9424 18.9466 79.9225 18.3779Z" fill="#505050"/>
<path d="M82.0527 32.4282H85.2413V31.5779H83.0676V30.2271H84.8436V29.3699H83.0676V28.1974H85.1659V27.3539H82.0527V32.4282Z" fill="#8C9EFF"/>
<path d="M86.2715 32.4282H88.0818C89.1926 32.4282 90.0429 31.9551 90.0429 30.9334C90.0429 30.2545 89.6383 29.8637 89.0966 29.7334V29.7059C89.5286 29.5482 89.7823 29.0751 89.7823 28.6088C89.7823 27.6625 88.9869 27.3539 87.9446 27.3539H86.2715V32.4282ZM87.2863 29.4179V28.1357H87.8898C88.5001 28.1357 88.7949 28.3071 88.7949 28.7528C88.7949 29.1642 88.5206 29.4179 87.8761 29.4179H87.2863ZM87.2863 31.6465V30.1722H87.9926C88.6921 30.1722 89.0555 30.3848 89.0555 30.8785C89.0555 31.3997 88.6783 31.6465 87.9926 31.6465H87.2863Z" fill="#8C9EFF"/>
<path d="M92.4612 32.5242C93.4212 32.5242 94.2989 31.7837 94.2989 30.5151C94.2989 29.2397 93.4212 28.4991 92.4612 28.4991C91.4943 28.4991 90.6166 29.2397 90.6166 30.5151C90.6166 31.7837 91.4943 32.5242 92.4612 32.5242ZM92.4612 31.7082C91.9332 31.7082 91.6452 31.2351 91.6452 30.5151C91.6452 29.7882 91.9332 29.3219 92.4612 29.3219C92.9823 29.3219 93.2703 29.7882 93.2703 30.5151C93.2703 31.2351 92.9823 31.7082 92.4612 31.7082Z" fill="#8C9EFF"/>
<path d="M96.7536 32.5242C97.7136 32.5242 98.5913 31.7837 98.5913 30.5151C98.5913 29.2397 97.7136 28.4991 96.7536 28.4991C95.7867 28.4991 94.909 29.2397 94.909 30.5151C94.909 31.7837 95.7867 32.5242 96.7536 32.5242ZM96.7536 31.7082C96.2256 31.7082 95.9376 31.2351 95.9376 30.5151C95.9376 29.7882 96.2256 29.3219 96.7536 29.3219C97.2747 29.3219 97.5627 29.7882 97.5627 30.5151C97.5627 31.2351 97.2747 31.7082 96.7536 31.7082Z" fill="#8C9EFF"/>
<path d="M99.4414 32.4282H100.429V31.4614L100.971 30.8374L101.903 32.4282H102.993L101.56 30.1722L102.877 28.5951H101.766L100.463 30.2408H100.429V26.9631H99.4414V32.4282Z" fill="#8C9EFF"/>
<path d="M106.032 30.6728V31.1597H109.927V30.6728H106.032ZM106.039 29.8157V30.3642H109.584V31.4614H106.039V32.0168H110.4V29.8157H106.039ZM107.554 30.1174V32.0374C107.554 32.7574 107.815 32.9562 108.761 32.9562C108.967 32.9562 109.988 32.9562 110.208 32.9562C110.955 32.9562 111.188 32.7299 111.284 31.9002C111.072 31.8591 110.763 31.7562 110.592 31.6397C110.551 32.2225 110.482 32.3254 110.139 32.3254C109.892 32.3254 109.028 32.3254 108.836 32.3254C108.418 32.3254 108.343 32.2911 108.343 32.0305V30.1174H107.554ZM105.627 29.8157V32.3185H106.416V29.8157H105.627ZM105.298 26.8534V27.3951H110.708V26.8534H105.298ZM107.595 26.9837V29.6305H108.397V26.9837H107.595ZM104.989 27.6694V29.2191H105.771V28.2042H110.235V29.2191H111.058V27.6694H104.989ZM105.723 29.1574L105.929 29.7334C106.368 29.6305 106.875 29.5139 107.389 29.3905L107.362 28.9311C106.752 29.0202 106.155 29.1094 105.723 29.1574ZM105.949 28.5882C106.34 28.6705 106.861 28.8214 107.136 28.9311L107.355 28.4854C107.074 28.3757 106.546 28.2522 106.162 28.1905L105.949 28.5882ZM109.796 28.1288C109.495 28.2385 108.973 28.4237 108.624 28.4991L108.884 28.8899C109.234 28.8214 109.741 28.7048 110.119 28.5539L109.796 28.1288ZM108.521 29.3288C109.042 29.4042 109.748 29.5825 110.119 29.7128L110.269 29.1985C109.892 29.0751 109.186 28.9242 108.679 28.8694L108.521 29.3288Z" fill="#8C9EFF"/>
<path d="M111.757 29.5825V30.4054H118.018V29.5825H111.757ZM112.436 26.9974V27.8134H116.756V26.9974H112.436ZM116.509 26.9974V27.1894C116.146 27.6214 115.241 28.2728 114.48 28.6294C114.637 28.7734 114.898 29.0477 115.015 29.2328C115.892 28.8008 116.873 28.0945 117.545 27.4362L116.921 26.9562L116.729 26.9974H116.509ZM114.48 28.6294V32.0511C114.48 32.1677 114.432 32.2019 114.288 32.2019C114.137 32.2088 113.602 32.2157 113.122 32.1882C113.259 32.4145 113.417 32.7917 113.472 33.0385C114.103 33.0385 114.576 33.0179 114.905 32.8877C115.241 32.7642 115.344 32.5311 115.344 32.0717V28.6294H114.48Z" fill="#8C9EFF"/>
<path d="M119.499 30.8305V33.0659H120.295V31.3448H123.236V33.0591H124.066V30.8305H119.499ZM119.917 31.5985V32.0785H123.531V31.5985H119.917ZM119.917 32.3459V32.8671H123.531V32.3459H119.917ZM121.289 26.5859V30.4122H122.119V26.5859H121.289ZM119.341 27.0179V27.4979H123.216V28.5745H119.266V29.0545H124.032V27.0179H119.341ZM118.642 27.7448V28.3139H124.827V27.7448H118.642ZM119.115 29.2945V29.7951H124.32V29.2945H119.115ZM118.628 30.0419V30.6111H124.82V30.0419H118.628Z" fill="#8C9EFF"/>
</svg>
